<?xml version="1.0" standalone="no"?>
<!DOCTYPE svg PUBLIC "-//W3C//DTD SVG 20010904//EN"
 "http://www.w3.org/TR/2001/REC-SVG-20010904/DTD/svg10.dtd">
<svg version="1.0" xmlns="http://www.w3.org/2000/svg"
 width="544.000000pt" height="184.000000pt" viewBox="0 0 544.000000 184.000000"
 preserveAspectRatio="xMidYMid meet">

<g transform="translate(0.000000,184.000000) scale(0.100000,-0.100000)"
fill="#000000" stroke="none">
<path d="M960 1436 c-5 -14 -23 -72 -41 -130 -18 -58 -35 -106 -38 -106 -3 0
-17 48 -30 108 -32 142 -32 142 -86 142 -24 0 -46 -3 -49 -8 -4 -6 24 -149 79
-399 l16 -73 59 0 58 0 16 46 c9 26 13 50 11 54 -3 5 -2 10 3 12 7 3 20 43 93
281 l17 57 -35 15 c-43 18 -43 18 -43 1 0 -8 -5 -18 -10 -21 -7 -4 -9 2 -4 19
8 33 -3 34 -16 2z m-151 -340 c5 -22 6 -35 2 -30 -9 9 -27 83 -18 74 3 -3 10
-23 16 -44z"/>
<path d="M2346 1450 c-82 -26 -136 -140 -136 -289 0 -68 18 -130 31 -109 6 9
8 6 7 -11 -4 -36 51 -71 112 -71 66 0 108 30 145 105 27 54 30 68 30 160 0
110 -17 163 -65 196 -31 22 -86 31 -124 19z m72 -122 c2 -16 7 -28 11 -28 4 0
5 -20 1 -45 -5 -36 -4 -45 6 -41 8 3 11 0 7 -9 -3 -8 -9 -12 -14 -9 -5 3 -9
-3 -9 -13 0 -38 -22 -93 -40 -103 -14 -7 -23 -6 -35 7 -14 14 -16 32 -13 107
6 111 27 169 60 164 17 -2 24 -11 26 -30z m98 -138 c0 -11 -6 -20 -13 -20 -7
0 -12 10 -11 24 3 28 24 24 24 -4z m0 -68 c-9 -8 -26 10 -26 26 1 15 2 15 15
-2 8 -11 13 -21 11 -24z m-69 22 c-3 -3 -12 -4 -19 -1 -8 3 -5 6 6 6 11 1 17
-2 13 -5z m33 -25 c0 -10 -7 -19 -15 -19 -12 0 -13 4 -6 19 6 10 7 22 3 26 -4
5 -1 5 6 1 6 -4 12 -16 12 -27z m-160 -69 c0 -5 -4 -10 -10 -10 -5 0 -10 5
-10 10 0 6 5 10 10 10 6 0 10 -4 10 -10z m130 0 c0 -5 -4 -10 -10 -10 -5 0
-10 5 -10 10 0 6 5 10 10 10 6 0 10 -4 10 -10z"/>
<path d="M201 1428 c1 -17 2 -19 6 -5 4 17 33 25 33 8 0 -4 -11 -25 -25 -46
-23 -33 -25 -45 -22 -114 l3 -76 2 83 c1 50 6 82 13 82 10 0 9 -22 -8 -167 -6
-51 -7 -54 -14 -28 -4 18 -7 -14 -8 -82 l-1 -113 60 0 c47 0 60 3 60 15 0 8
-6 15 -13 15 -7 0 -13 10 -14 23 0 12 1 16 4 10 10 -27 21 -11 21 30 0 23 5
112 11 197 6 85 11 163 11 173 0 14 -9 17 -60 17 -56 0 -60 -2 -59 -22z"/>
<path d="M393 1443 c-26 -3 -33 -9 -33 -26 0 -12 -4 -74 -9 -137 -5 -63 -12
-159 -16 -212 l-6 -98 60 0 61 0 0 126 c0 69 3 123 8 120 4 -2 27 -59 52 -125
l45 -121 58 0 57 0 -1 113 c0 61 3 166 7 233 l7 121 -44 6 c-24 3 -48 2 -53
-3 -5 -5 -12 -48 -14 -95 -2 -46 -8 -83 -12 -80 -4 2 -19 38 -34 79 -15 41
-33 79 -39 85 -16 13 -56 19 -94 14z"/>
<path d="M1220 1441 l-95 -6 -7 -45 c-4 -25 -10 -130 -14 -234 l-7 -189 154 8
c85 4 158 10 162 15 5 4 7 27 5 51 l-3 44 -101 3 -100 3 4 29 c4 31 9 33 110
45 l52 7 -1 48 -2 48 -71 -4 c-39 -3 -76 -7 -83 -9 -8 -3 -9 5 -2 27 4 17 11
33 13 36 3 3 48 9 101 15 l95 10 0 54 0 53 -57 -2 c-32 -1 -101 -4 -153 -7z
m-8 -268 c-6 -3 -9 -10 -6 -16 4 -7 1 -6 -7 2 -11 10 -11 15 -1 18 6 3 9 10 6
16 -4 7 -1 6 7 -2 11 -10 11 -15 1 -18z"/>
<path d="M1518 1443 c-24 -4 -27 -9 -32 -61 -9 -77 -26 -328 -26 -374 l0 -38
60 0 60 0 1 128 0 127 19 -40 c11 -22 34 -80 51 -128 l33 -88 55 3 56 3 1 100
c1 55 5 159 8 231 l6 131 -47 6 c-27 3 -51 3 -55 0 -5 -2 -8 -41 -8 -87 0 -45
-3 -86 -7 -90 -4 -3 -21 30 -39 75 -18 45 -36 85 -41 90 -11 11 -61 18 -95 12z"/>
<path d="M1940 1441 l-95 -6 -3 -64 c-3 -62 -2 -63 20 -58 13 3 38 8 56 12
l32 7 1 -124 c1 -80 4 -114 9 -98 7 19 8 12 8 -30 -1 -63 -8 -82 -19 -54 -6
14 -8 9 -8 -18 l-1 -38 58 0 59 0 6 107 c4 58 7 141 7 184 l0 78 53 3 52 3 3
53 3 52 -73 -2 c-40 -1 -116 -4 -168 -7z"/>
<path d="M2680 1438 c-41 -5 -76 -11 -78 -13 -4 -4 -31 -368 -32 -422 l0 -33
55 0 54 0 3 73 c3 65 5 72 24 75 18 3 28 -11 60 -72 22 -42 42 -76 47 -76 12
0 87 52 87 61 0 5 -16 37 -35 72 l-35 63 30 29 c31 30 50 78 50 128 0 36 -27
95 -49 106 -28 16 -104 19 -181 9z m110 -103 c27 -32 -32 -105 -85 -105 -11 0
-15 10 -15 38 0 45 16 69 50 75 14 2 28 5 31 6 4 0 12 -6 19 -14z m-6 -121 c3
-8 2 -12 -4 -9 -6 3 -10 10 -10 16 0 14 7 11 14 -7z"/>
<path d="M2996 1434 c-22 -8 -41 -16 -43 -18 -3 -2 21 -75 52 -162 54 -148 57
-161 51 -221 l-7 -63 61 0 60 0 0 68 c0 57 7 85 39 163 22 52 49 117 60 146
l20 52 -42 15 -42 15 39 -4 c21 -3 43 -8 48 -12 6 -3 9 0 6 8 -3 8 -24 16 -52
20 l-47 5 -18 -40 c-9 -23 -26 -62 -37 -88 -10 -27 -22 -48 -25 -48 -3 0 -21
41 -40 90 -18 50 -36 90 -39 89 -3 0 -23 -7 -44 -15z m161 -391 c-2 -21 -4 -6
-4 32 0 39 2 55 4 38 2 -18 2 -50 0 -70z"/>
<path d="M2386 713 c-12 -39 -26 -162 -26 -236 0 -61 3 -79 15 -84 9 -3 19 -2
23 1 3 4 13 62 22 129 11 90 19 122 29 122 7 0 30 -29 50 -65 49 -87 71 -91
105 -17 29 60 62 96 75 81 5 -5 13 -59 18 -121 10 -114 22 -147 50 -136 14 5
15 24 9 146 -7 143 -18 189 -48 195 -20 4 -99 -66 -129 -115 l-22 -35 -28 54
c-16 29 -42 63 -57 75 -33 28 -78 30 -86 6z"/>
<path d="M5090 711 c-5 -11 -10 -33 -10 -48 0 -35 -16 -53 -49 -53 -23 0 -24
-1 -6 -20 10 -11 24 -20 32 -20 9 0 13 -18 13 -67 0 -146 68 -160 105 -23 6
23 4 23 -20 -7 -34 -43 -45 -42 -45 5 0 84 11 113 46 128 18 8 35 18 38 23 10
16 -34 24 -51 9 -14 -12 -15 -8 -9 33 6 38 4 48 -9 53 -23 8 -23 8 -35 -13z"/>
<path d="M4123 643 c-16 -6 -18 -188 -3 -228 11 -28 36 -43 50 -29 5 5 12 45
16 89 3 44 13 91 22 104 14 24 15 24 29 6 9 -13 13 -44 11 -98 -1 -61 2 -81
15 -95 16 -15 18 -15 34 0 12 12 18 41 21 100 4 84 13 108 38 108 11 0 14 -18
14 -79 0 -85 14 -141 36 -141 16 0 54 35 54 49 0 5 3 18 7 28 6 16 5 16 -10 4
-16 -12 -17 -7 -17 66 0 119 -35 152 -105 99 -30 -23 -32 -24 -43 -5 -14 22
-49 24 -76 4 -25 -19 -36 -19 -36 -1 0 20 -30 31 -57 19z"/>
<path d="M2862 624 c-33 -23 -27 -34 14 -22 74 20 90 -22 20 -52 -62 -26 -86
-53 -86 -95 0 -37 28 -75 56 -75 9 0 29 8 45 17 27 16 29 16 48 -1 23 -21 56
-9 66 25 9 26 0 35 -20 19 -13 -11 -15 -2 -15 78 0 69 -4 94 -16 106 -20 20
-83 21 -112 0z m78 -131 c0 -46 -68 -100 -71 -55 -2 33 2 47 23 65 30 25 48
21 48 -10z"/>
<path d="M3073 518 c-2 -121 4 -148 33 -148 17 0 24 24 34 121 8 84 25 117 54
106 13 -5 16 -24 17 -89 1 -103 9 -133 34 -133 22 0 64 63 48 73 -6 4 -13 42
-16 85 -3 43 -11 85 -17 93 -18 20 -63 17 -93 -6 l-26 -21 -11 21 c-6 11 -21
20 -33 20 -21 0 -22 -3 -24 -122z"/>
<path d="M3383 628 c-12 -6 -24 -17 -27 -24 -4 -11 1 -13 22 -7 48 12 76 9 80
-9 2 -13 -11 -24 -51 -42 -63 -27 -79 -51 -75 -104 2 -27 10 -40 30 -52 25
-13 31 -13 62 4 32 17 36 17 51 2 9 -9 21 -16 26 -16 14 0 49 39 49 55 0 18
-12 19 -28 3 -9 -9 -12 8 -12 78 0 75 -3 94 -18 107 -21 19 -75 21 -109 5z
m77 -132 c0 -27 -35 -76 -55 -76 -12 0 -25 21 -25 39 0 5 9 20 21 35 26 34 59
35 59 2z"/>
<path d="M3652 621 c-51 -33 -74 -77 -69 -135 4 -40 11 -55 35 -77 37 -33 62
-29 97 15 l25 31 0 -50 c0 -65 -20 -95 -64 -95 -17 0 -37 5 -42 10 -8 8 -14 7
-22 -3 -9 -10 -8 -19 4 -35 12 -17 25 -22 63 -22 61 0 97 26 112 83 14 53 17
262 4 276 -5 5 -32 13 -60 16 -40 5 -56 2 -83 -14z m96 -79 c4 -52 -16 -87
-55 -97 -22 -5 -31 -2 -46 16 -37 46 10 133 68 127 28 -3 30 -6 33 -46z"/>
<path d="M3919 623 c-40 -24 -59 -65 -59 -123 0 -44 4 -56 29 -81 50 -49 137
-33 171 31 10 19 9 19 -32 0 -56 -26 -83 -25 -102 2 -28 39 -20 55 32 67 64
17 92 36 92 66 0 49 -77 72 -131 38z m74 -38 c2 -12 -49 -38 -65 -33 -17 6 30
50 48 46 8 -2 16 -7 17 -13z"/>
<path d="M4554 607 c-31 -28 -37 -42 -41 -83 -6 -56 13 -106 46 -124 38 -20
88 -12 126 21 43 38 45 53 5 33 -16 -8 -44 -18 -63 -21 -36 -6 -51 6 -62 48
-6 25 -4 27 44 39 67 16 100 42 94 74 -11 54 -96 62 -149 13z m96 -21 c0 -15
-52 -40 -70 -34 -17 5 28 48 50 48 11 0 20 -6 20 -14z"/>
<path d="M4769 636 c-2 -2 -2 -59 1 -127 4 -103 8 -124 23 -133 26 -16 35 4
42 94 6 86 22 125 50 125 18 0 20 -9 25 -102 5 -109 17 -137 45 -113 23 19 47
68 35 72 -5 2 -12 37 -16 78 -4 41 -11 83 -16 93 -12 24 -64 22 -96 -4 l-26
-20 -8 20 c-6 19 -46 30 -59 17z"/>
</g>
</svg>
